<svg width="1007" height="706" viewBox="0 0 1007 706" fill="none" xmlns="http://www.w3.org/2000/svg">
<g filter="url(#filter0_d_5704_15)">
<path d="M910 296C910 365.036 854.036 421 785 421C715.964 421 660 365.036 660 296C660 226.964 715.964 171 785 171C854.036 171 910 226.964 910 296Z" fill="url(#paint0_linear_5704_15)" shape-rendering="crispEdges"/>
<path d="M910 296C910 365.036 854.036 421 785 421C715.964 421 660 365.036 660 296C660 226.964 715.964 171 785 171C854.036 171 910 226.964 910 296Z" stroke="#1F98F0" shape-rendering="crispEdges"/>
</g>
<g filter="url(#filter1_f_5704_15)">
<path d="M824 421.5C824 538.308 729.308 633 612.5 633C495.692 633 401 538.308 401 421.5C401 304.692 495.692 210 612.5 210C729.308 210 824 304.692 824 421.5Z" fill="url(#paint1_radial_5704_15)"/>
<path d="M612.5 633.5C729.584 633.5 824.5 538.584 824.5 421.5C824.5 304.416 729.584 209.5 612.5 209.5C495.416 209.5 400.5 304.416 400.5 421.5C400.5 538.584 495.416 633.5 612.5 633.5Z" stroke="#1F98F0"/>
</g>
<g filter="url(#filter2_f_5704_15)">
<path d="M509 421.5C509 538.308 414.308 633 297.5 633C180.692 633 86 538.308 86 421.5C86 304.692 180.692 210 297.5 210C414.308 210 509 304.692 509 421.5Z" fill="url(#paint2_radial_5704_15)"/>
<path d="M297.5 633.5C414.584 633.5 509.5 538.584 509.5 421.5C509.5 304.416 414.584 209.5 297.5 209.5C180.416 209.5 85.5 304.416 85.5 421.5C85.5 538.584 180.416 633.5 297.5 633.5Z" stroke="#1F98F0"/>
</g>
<defs>
<filter id="filter0_d_5704_15" x="655.5" y="170.5" width="259" height="259" filterUnits="userSpaceOnUse" color-interpolation-filters="sRGB">
<feFlood flood-opacity="0" result="BackgroundImageFix"/>
<feColorMatrix in="SourceAlpha" type="matrix" values="0 0 0 0 0 0 0 0 0 0 0 0 0 0 0 0 0 0 127 0" result="hardAlpha"/>
<feOffset dy="4"/>
<feGaussianBlur stdDeviation="2"/>
<feComposite in2="hardAlpha" operator="out"/>
<feColorMatrix type="matrix" values="0 0 0 0 0 0 0 0 0 0 0 0 0 0 0 0 0 0 0.25 0"/>
<feBlend mode="normal" in2="BackgroundImageFix" result="effect1_dropShadow_5704_15"/>
<feBlend mode="normal" in="SourceGraphic" in2="effect1_dropShadow_5704_15" result="shape"/>
</filter>
<filter id="filter1_f_5704_15" x="396" y="205" width="433" height="433" filterUnits="userSpaceOnUse" color-interpolation-filters="sRGB">
<feFlood flood-opacity="0" result="BackgroundImageFix"/>
<feBlend mode="normal" in="SourceGraphic" in2="BackgroundImageFix" result="shape"/>
<feGaussianBlur stdDeviation="2" result="effect1_foregroundBlur_5704_15"/>
</filter>
<filter id="filter2_f_5704_15" x="81" y="205" width="433" height="433" filterUnits="userSpaceOnUse" color-interpolation-filters="sRGB">
<feFlood flood-opacity="0" result="BackgroundImageFix"/>
<feBlend mode="normal" in="SourceGraphic" in2="BackgroundImageFix" result="shape"/>
<feGaussianBlur stdDeviation="2" result="effect1_foregroundBlur_5704_15"/>
</filter>
<linearGradient id="paint0_linear_5704_15" x1="785" y1="171" x2="785" y2="421" gradientUnits="userSpaceOnUse">
<stop stop-color="#BA1852"/>
<stop offset="1" stop-color="#BA1852" stop-opacity="0"/>
</linearGradient>
<radialGradient id="paint1_radial_5704_15" cx="0" cy="0" r="1" gradientUnits="userSpaceOnUse" gradientTransform="translate(613 395) rotate(90.1204) scale(238.001)">
<stop offset="0.67055" stop-color="#1F98F0"/>
<stop offset="1" stop-color="#1F98F0" stop-opacity="0"/>
</radialGradient>
<radialGradient id="paint2_radial_5704_15" cx="0" cy="0" r="1" gradientUnits="userSpaceOnUse" gradientTransform="translate(297.5 421.5) rotate(90) scale(211.5)">
<stop offset="0.390625" stop-color="#451669" stop-opacity="0.604167"/>
<stop offset="0.962455" stop-color="#451669"/>
<stop offset="0.984651" stop-color="#451669" stop-opacity="0.583333"/>
<stop offset="1" stop-color="#451669" stop-opacity="0"/>
</radialGradient>
</defs>
</svg>
